<svg width="34" height="25" viewBox="0 0 34 25" fill="none" xmlns="http://www.w3.org/2000/svg">
<path d="M1.83629 20.3107C0.721236 15.0347 0.721236 9.58298 1.83629 4.307C1.9828 3.77122 2.26588 3.28289 2.6577 2.89005C3.04951 2.49721 3.53656 2.21339 4.07094 2.06649C12.632 0.644503 21.368 0.644503 29.9291 2.06649C30.4634 2.21339 30.9505 2.49721 31.3423 2.89005C31.7341 3.28289 32.0172 3.77122 32.1637 4.307C33.2788 9.58298 33.2788 15.0347 32.1637 20.3107C32.0172 20.8464 31.7341 21.3348 31.3423 21.7276C30.9505 22.1204 30.4634 22.4043 29.9291 22.5512C21.3681 23.9734 12.6319 23.9734 4.07094 22.5512C3.53656 22.4043 3.04951 22.1204 2.6577 21.7276C2.26588 21.3348 1.9828 20.8464 1.83629 20.3107Z" stroke="black" stroke-width="2" stroke-linecap="round" stroke-linejoin="round"/>
<path d="M13.8076 17.11L21.7885 12.3089L13.8076 7.50781V17.11Z" stroke="black" stroke-width="2" stroke-linecap="round" stroke-linejoin="round"/>
</svg>
