<svg width="28" height="29" viewBox="0 0 28 29" fill="none" xmlns="http://www.w3.org/2000/svg">
<path d="M20.5 1H7.5C3.91015 1 1 3.91778 1 7.51704V20.5511C1 24.1504 3.91015 27.0682 7.5 27.0682H20.5C24.0898 27.0682 27 24.1504 27 20.5511V7.51704C27 3.91778 24.0898 1 20.5 1Z" stroke="black" stroke-width="2" stroke-linecap="round" stroke-linejoin="round"/>
<path d="M19.2 13.213C19.3604 14.2978 19.1756 15.4057 18.6718 16.379C18.1681 17.3524 17.3711 18.1418 16.3941 18.6348C15.4171 19.1278 14.3099 19.2994 13.2301 19.1252C12.1502 18.951 11.1526 18.4398 10.3793 17.6644C9.60585 16.889 9.09601 15.8888 8.92225 14.8061C8.74848 13.7234 8.91965 12.6133 9.41139 11.6338C9.90312 10.6543 10.6904 9.85513 11.6612 9.35006C12.6321 8.84499 13.737 8.6597 14.819 8.82056C15.9226 8.98464 16.9443 9.50024 17.7332 10.2912C18.5221 11.0822 19.0363 12.1066 19.2 13.213Z" stroke="black" stroke-width="2" stroke-linecap="round" stroke-linejoin="round"/>
<path d="M21.1499 6.86536H21.1629" stroke="black" stroke-width="2" stroke-linecap="round" stroke-linejoin="round"/>
</svg>
